<svg width="15" height="8" viewBox="0 0 15 8" fill="none" xmlns="http://www.w3.org/2000/svg">
<path d="M7.4993 7.845C7.26565 7.84546 7.03921 7.76408 6.8593 7.615L0.859299 2.615C0.655083 2.44526 0.526658 2.20135 0.502278 1.93693C0.477899 1.6725 0.559561 1.40922 0.729299 1.205C0.899038 1.00079 1.14295 0.872361 1.40738 0.847982C1.6718 0.823602 1.93508 0.905263 2.1393 1.075L7.4993 5.555L12.8593 1.235C12.9616 1.15194 13.0793 1.0899 13.2056 1.05247C13.332 1.01504 13.4645 1.00295 13.5955 1.01689C13.7265 1.03083 13.8535 1.07052 13.9691 1.1337C14.0848 1.19687 14.1868 1.28228 14.2693 1.385C14.3609 1.48782 14.4302 1.60845 14.473 1.73932C14.5158 1.8702 14.5311 2.0085 14.518 2.14556C14.5048 2.28262 14.4635 2.4155 14.3967 2.53585C14.3298 2.65621 14.2387 2.76146 14.1293 2.845L8.1293 7.675C7.94422 7.80052 7.7224 7.86037 7.4993 7.845Z" fill="#0079C5"/>
</svg>
