<svg width="19" height="19" viewBox="0 0 19 19" fill="none" xmlns="http://www.w3.org/2000/svg">
<path d="M12.5 2C12.8978 2 13.2794 2.15804 13.5607 2.43934C13.842 2.72064 14 3.10218 14 3.5H3.5V11.8827C3.10218 11.8827 2.72064 11.7247 2.43934 11.4434C2.15804 11.1621 2 10.7806 2 10.3827V3.5C2 3.10218 2.15804 2.72064 2.43934 2.43934C2.72064 2.15804 3.10218 2 3.5 2H12.5Z"/>
<path d="M11 17L8.99975 14.8827H6.5C6.10218 14.8827 5.72064 14.7247 5.43934 14.4434C5.15804 14.1621 5 13.7806 5 13.3827V6.5C5 6.10218 5.15804 5.72064 5.43934 5.43934C5.72064 5.15804 6.10218 5 6.5 5H15.5C15.8978 5 16.2794 5.15804 16.5607 5.43934C16.842 5.72064 17 6.10218 17 6.5V13.3827C17 13.7806 16.842 14.1621 16.5607 14.4434C16.2794 14.7247 15.8978 14.8827 15.5 14.8827H13.0002L11 17ZM12.3537 13.3827H15.5V6.5H6.5V13.3827H9.64625L11 14.8152L12.3537 13.3827Z"/>
</svg>
