<svg width="13" height="14" viewBox="0 0 13 14" fill="none" xmlns="http://www.w3.org/2000/svg">
<path d="M7.90994 7L12.2099 2.71C12.3982 2.5217 12.504 2.2663 12.504 2C12.504 1.7337 12.3982 1.47831 12.2099 1.29C12.0216 1.1017 11.7662 0.995911 11.4999 0.995911C11.2336 0.995911 10.9782 1.1017 10.7899 1.29L6.49994 5.59L2.20994 1.29C2.02164 1.1017 1.76624 0.995911 1.49994 0.995911C1.23364 0.995911 0.978243 1.1017 0.789939 1.29C0.601635 1.47831 0.495847 1.7337 0.495847 2C0.495847 2.2663 0.601635 2.5217 0.789939 2.71L5.08994 7L0.789939 11.29C0.696211 11.383 0.621816 11.4936 0.571048 11.6154C0.520279 11.7373 0.494141 11.868 0.494141 12C0.494141 12.132 0.520279 12.2627 0.571048 12.3846C0.621816 12.5064 0.696211 12.617 0.789939 12.71C0.882902 12.8037 0.993503 12.8781 1.11536 12.9289C1.23722 12.9797 1.36793 13.0058 1.49994 13.0058C1.63195 13.0058 1.76266 12.9797 1.88452 12.9289C2.00638 12.8781 2.11698 12.8037 2.20994 12.71L6.49994 8.41L10.7899 12.71C10.8829 12.8037 10.9935 12.8781 11.1154 12.9289C11.2372 12.9797 11.3679 13.0058 11.4999 13.0058C11.632 13.0058 11.7627 12.9797 11.8845 12.9289C12.0064 12.8781 12.117 12.8037 12.2099 12.71C12.3037 12.617 12.3781 12.5064 12.4288 12.3846C12.4796 12.2627 12.5057 12.132 12.5057 12C12.5057 11.868 12.4796 11.7373 12.4288 11.6154C12.3781 11.4936 12.3037 11.383 12.2099 11.29L7.90994 7Z" fill="#0079C5"/>
</svg>
