<svg width="15" height="12" viewBox="0 0 15 12" fill="none" xmlns="http://www.w3.org/2000/svg">
<path d="M1.5 4.5V10.5H13.5V4.5L7.5 6.75L1.5 4.5ZM1.5 1.5V3L7.5 5.25L13.5 3V1.5H1.5ZM1.5 0H13.5C13.8978 0 14.2794 0.158035 14.5607 0.43934C14.842 0.720644 15 1.10218 15 1.5V10.5C15 10.8978 14.842 11.2794 14.5607 11.5607C14.2794 11.842 13.8978 12 13.5 12H1.5C1.10218 12 0.720644 11.842 0.43934 11.5607C0.158035 11.2794 0 10.8978 0 10.5V1.5C0 1.10218 0.158035 0.720644 0.43934 0.43934C0.720644 0.158035 1.10218 0 1.5 0Z"/>
</svg>
