<svg width="40" height="40" viewBox="0 0 40 40" fill="none" xmlns="http://www.w3.org/2000/svg">
<path fill-rule="evenodd" clip-rule="evenodd" d="M0.333984 19.709C0.333984 30.4098 9.00817 39.084 19.709 39.084C30.4098 39.084 39.084 30.4098 39.084 19.709C39.084 9.00817 30.4098 0.333984 19.709 0.333984C9.00817 0.333984 0.333984 9.00817 0.333984 19.709ZM20.639 11.585L20.639 11.585C20.7165 11.5908 20.794 11.5966 20.854 11.6063C25.2134 12.2999 27.2207 14.4311 27.7767 18.9688C27.7849 19.0343 27.7862 19.111 27.7875 19.194V19.1941L27.7883 19.24L27.7884 19.2406C27.7942 19.5954 27.8062 20.3308 28.573 20.3463H28.5963C28.7016 20.3519 28.8069 20.3349 28.9052 20.2965C29.0034 20.2581 29.0923 20.1991 29.1659 20.1235C29.4042 19.8658 29.3887 19.4841 29.3752 19.1741L29.3749 19.17V19.1699C29.3711 19.0978 29.3674 19.0277 29.3693 18.9668C29.4236 14.3265 25.5331 10.1183 21.042 9.96327L20.9877 9.96521C20.9704 9.96776 20.9529 9.96905 20.9354 9.96908C20.8926 9.96908 20.8392 9.96551 20.7835 9.9618L20.7765 9.96133C20.6992 9.95427 20.6217 9.95039 20.544 9.94971C19.8291 9.94971 19.6935 10.4728 19.676 10.7867C19.6373 11.5094 20.3135 11.5617 20.639 11.585ZM27.5655 24.8316C27.4722 24.7586 27.3799 24.6843 27.2885 24.6088C26.832 24.2303 26.3472 23.8803 25.8781 23.5416L25.816 23.4967C25.7138 23.4233 25.6118 23.3496 25.5098 23.2758C24.8821 22.8225 24.3183 22.5996 23.7855 22.5996C23.0686 22.5996 22.4428 23.0104 21.9255 23.8183C21.6968 24.1748 21.4178 24.3492 21.0768 24.3492C20.8388 24.3407 20.6054 24.2806 20.3929 24.1729C18.3682 23.2235 16.9209 21.7704 16.0936 19.8523C15.6945 18.9223 15.8223 18.3178 16.5276 17.8237C16.9267 17.5447 17.6707 17.0235 17.6184 16.0257C17.5603 14.8923 15.1365 11.4823 14.1154 11.0948C13.6798 10.9304 13.1995 10.929 12.763 11.0909C11.5908 11.4978 10.748 12.2146 10.3276 13.1582C9.92072 14.0727 9.9401 15.1441 10.3818 16.2601C11.6548 19.488 13.4431 22.3013 15.7022 24.6224C17.911 26.8951 20.6273 28.7551 23.7738 30.154C24.0503 30.277 24.3415 30.3446 24.5572 30.3946L24.5721 30.3981L24.7562 30.4446C24.7814 30.4518 24.8074 30.4557 24.8337 30.4562H24.8588C26.3391 30.4562 28.1158 29.0612 28.6622 27.4686C29.1407 26.0737 28.267 25.3859 27.5657 24.8337L27.5655 24.8336V24.8316ZM21.2938 15.272C21.042 15.2778 20.513 15.2914 20.327 15.8455C20.2418 16.1051 20.2515 16.3299 20.358 16.514C20.515 16.7852 20.8172 16.8685 21.0904 16.9131C22.0824 17.0778 22.5939 17.6455 22.6947 18.6956C22.7431 19.1877 23.0628 19.5287 23.4735 19.5287C23.5046 19.5294 23.5356 19.5281 23.5665 19.5248C24.0606 19.4628 24.2989 19.0889 24.2776 18.4108C24.2853 17.7016 23.9269 16.8995 23.3166 16.2601C22.7043 15.6169 21.9662 15.2546 21.2938 15.272ZM26.7692 18.5543C26.7925 15.6635 24.4074 13.013 21.4527 12.6468L21.259 12.6178C21.1108 12.5883 20.9604 12.5715 20.8095 12.5674C20.203 12.5674 20.0422 13.0053 19.9996 13.2668C19.9754 13.3755 19.9732 13.4878 19.9932 13.5973C20.0132 13.7068 20.0549 13.8112 20.1158 13.9043C20.3137 14.1801 20.6573 14.2318 20.9375 14.2739L20.9528 14.2763L20.9837 14.2805C21.0557 14.2904 21.1235 14.2997 21.1795 14.315C23.8358 14.9253 24.731 15.8883 25.1669 18.6066C25.1785 18.6744 25.1824 18.7558 25.1863 18.8429C25.2056 19.1665 25.2463 19.8427 25.9516 19.8427C26.0097 19.8427 26.0717 19.8388 26.1376 19.8272C26.7933 19.7247 26.7731 19.1085 26.7634 18.8115L26.7634 18.81C26.7585 18.7384 26.7585 18.6665 26.7634 18.5949C26.7655 18.5821 26.7668 18.5692 26.7673 18.5562L26.7692 18.5543Z"/>
</svg>
